<svg width="97" height="32" viewBox="0 0 97 32" fill="none" xmlns="http://www.w3.org/2000/svg">
<path d="M86.7694 27.5026C86.7694 27.6453 86.7549 27.8348 86.7254 28.0719C86.6959 28.3086 86.6162 28.5424 86.4869 28.7736C86.357 29.0041 86.1568 29.2028 85.8852 29.3693C85.6143 29.535 85.2306 29.6174 84.7363 29.6174C84.536 29.6174 84.3409 29.5998 84.1531 29.5643C83.9641 29.5285 83.7992 29.4663 83.6572 29.3777C83.516 29.2892 83.4039 29.1677 83.322 29.0133C83.239 28.8593 83.1978 28.6697 83.1978 28.4444C83.1978 28.208 83.239 28.0126 83.322 27.8586C83.4039 27.7045 83.5131 27.5769 83.6485 27.4762C83.7839 27.3756 83.9434 27.2959 84.1258 27.2362C84.3081 27.1773 84.4945 27.1294 84.6835 27.0943C84.8833 27.0584 85.0839 27.0295 85.2838 27.0057C85.4847 26.9816 85.6762 26.9519 85.859 26.9164C86.0414 26.8813 86.2128 26.8367 86.3715 26.7833C86.531 26.7298 86.6635 26.6563 86.7694 26.5608V27.5026ZM89.2802 29.0133V24.2331C89.2802 23.6762 89.1568 23.2291 88.9093 22.8914C88.6617 22.5541 88.3432 22.2903 87.9544 22.1007C87.5656 21.9116 87.1349 21.7835 86.6635 21.7184C86.1921 21.654 85.7265 21.6211 85.2667 21.6211C84.7596 21.6211 84.2565 21.6712 83.7555 21.7722C83.2542 21.8728 82.8028 22.0415 82.402 22.2786C82.0012 22.5157 81.6714 22.8292 81.4118 23.2203C81.1534 23.6111 81.0055 24.1032 80.9702 24.6952H83.481C83.5276 24.1976 83.6933 23.8423 83.9758 23.6287C84.259 23.4157 84.6478 23.3092 85.1425 23.3092C85.3664 23.3092 85.5765 23.3239 85.7701 23.3535C85.9649 23.3832 86.136 23.4421 86.2834 23.5313C86.4309 23.6202 86.5488 23.7446 86.6369 23.9045C86.7254 24.0648 86.7694 24.2807 86.7694 24.5529C86.7811 24.8137 86.7046 25.0124 86.5394 25.1482C86.3745 25.2846 86.1506 25.3885 85.8681 25.4595C85.5848 25.5305 85.2605 25.5835 84.8953 25.6194C84.5302 25.6549 84.1585 25.7021 83.7817 25.7614C83.4039 25.8206 83.03 25.9008 82.659 26.001C82.2873 26.1024 81.9575 26.2535 81.6685 26.4543C81.3798 26.6563 81.1442 26.926 80.9611 27.2633C80.7788 27.6006 80.687 28.0298 80.687 28.5516C80.687 29.0254 80.7667 29.4344 80.9262 29.7776C81.0853 30.1208 81.3062 30.4058 81.5891 30.6305C81.872 30.8555 82.2018 31.0216 82.5786 31.1277C82.9561 31.2345 83.3631 31.2883 83.7992 31.2883C84.3649 31.2883 84.9186 31.2053 85.4611 31.0392C86.0035 30.8734 86.4746 30.5833 86.8754 30.1687C86.887 30.3228 86.9081 30.4735 86.9376 30.6213C86.9668 30.7702 87.005 30.9151 87.0523 31.0567H89.5984C89.4805 30.8676 89.3978 30.5833 89.3509 30.2042C89.3039 29.8252 89.2802 29.4286 89.2802 29.0133Z" fill="#8A8A8C"/>
<path d="M90.6416 31.0566H93.4178V28.3202H90.6416V31.0566Z" fill="#8A8A8C"/>
<path d="M69.5835 31.0566H72.0943V21.8697H69.5835V31.0566Z" fill="#8A8A8C"/>
<path d="M92.6396 27.2538L93.3295 21.7807V18.3688H90.7124V21.7807L91.3844 27.2538H92.6396Z" fill="#8A8A8C"/>
<path d="M77.2925 31.0566H79.8033V18.369H77.2925V31.0566Z" fill="#8A8A8C"/>
<path d="M73.438 31.0566H75.9484V18.369H73.438V31.0566Z" fill="#8A8A8C"/>
<path d="M69.5835 20.4476H72.0943V18.3686H69.5835V20.4476Z" fill="#8A8A8C"/>
<path d="M46.208 26.2699H49.0017C48.9187 27.1586 48.6271 27.8369 48.1269 28.3049C47.6252 28.7728 46.915 29.0066 45.9958 29.0066C45.3707 29.0066 44.8406 28.8848 44.4045 28.6422C43.968 28.3996 43.6142 28.0762 43.343 27.6737C43.0718 27.2709 42.8748 26.8183 42.751 26.3145C42.6276 25.811 42.5654 25.2922 42.5654 24.7595C42.5654 24.203 42.6276 23.6637 42.751 23.142C42.8748 22.6209 43.0718 22.1559 43.343 21.7469C43.6142 21.3382 43.968 21.0129 44.4045 20.77C44.8406 20.5274 45.3707 20.4056 45.9958 20.4056C46.6678 20.4056 47.239 20.583 47.7111 20.9386C48.1822 21.2943 48.5007 21.827 48.666 22.5383H51.3177C51.2471 21.8156 51.0527 21.1761 50.7345 20.6189C50.416 20.062 50.0119 19.5944 49.5226 19.215C49.0341 18.8363 48.4858 18.5483 47.8789 18.353C47.271 18.1576 46.6438 18.0599 45.9958 18.0599C45.0289 18.0599 44.1595 18.2319 43.3874 18.5754C42.6156 18.919 41.964 19.3928 41.4339 19.9965C40.9035 20.6013 40.4969 21.3089 40.2137 22.1204C39.9312 22.9319 39.7896 23.8119 39.7896 24.7595C39.7896 25.6834 39.9312 26.5454 40.2137 27.3448C40.4969 28.1446 40.9035 28.8409 41.4339 29.4332C41.964 30.0256 42.6156 30.4903 43.3874 30.828C44.1595 31.1653 45.0289 31.3344 45.9958 31.3344C46.6081 31.3344 47.2157 31.2067 47.8171 30.9524C48.4181 30.6977 48.966 30.251 49.4618 29.6107L49.7443 31.0501H51.5121V24.1909H46.208V26.2699Z" fill="#8A8A8C"/>
<path d="M59.3445 27.5404C59.2742 27.8899 59.1534 28.2038 58.983 28.4822C58.8115 28.7606 58.5811 28.9827 58.2931 29.1488C58.0041 29.315 57.6481 29.3973 57.2236 29.3973C56.7991 29.3973 56.4453 29.315 56.1628 29.1488C55.8792 28.9827 55.652 28.7606 55.4816 28.4822C55.3105 28.2038 55.1893 27.8899 55.1198 27.5404C55.0481 27.191 55.0131 26.8325 55.0131 26.4655C55.0131 26.0985 55.0481 25.737 55.1198 25.3818C55.1893 25.0258 55.3105 24.7122 55.4816 24.4396C55.652 24.167 55.8792 23.945 56.1628 23.7734C56.4453 23.6014 56.7991 23.5154 57.2236 23.5154C57.6481 23.5154 58.0041 23.6014 58.2931 23.7734C58.5811 23.945 58.8115 24.167 58.983 24.4396C59.1534 24.7122 59.2742 25.0258 59.3445 25.3818C59.4155 25.737 59.4508 26.0985 59.4508 26.4655C59.4508 26.8325 59.4155 27.191 59.3445 27.5404ZM60.6711 22.9381C60.2586 22.5173 59.7606 22.1917 59.1774 21.9604C58.5935 21.7296 57.9418 21.6139 57.2236 21.6139C56.5039 21.6139 55.8555 21.7296 55.2785 21.9604C54.7008 22.1917 54.2057 22.5173 53.7925 22.9381C53.3804 23.3588 53.0622 23.8681 52.8383 24.4663C52.6144 25.0642 52.502 25.7308 52.502 26.4655C52.502 27.1998 52.6144 27.8635 52.8383 28.4555C53.0622 29.0479 53.3804 29.5546 53.7925 29.9746C54.2057 30.3958 54.7008 30.7185 55.2785 30.9435C55.8555 31.1685 56.5039 31.2812 57.2236 31.2812C57.9418 31.2812 58.5935 31.1685 59.1774 30.9435C59.7606 30.7185 60.2586 30.3958 60.6711 29.9746C61.0835 29.5546 61.4017 29.0479 61.626 28.4555C61.8498 27.8635 61.9612 27.1998 61.9612 26.4655C61.9612 25.7308 61.8498 25.0642 61.626 24.4663C61.4017 23.8681 61.0835 23.3588 60.6711 22.9381Z" fill="#8A8A8C"/>
<path d="M67.3014 21.7561C67.0062 21.8515 66.7295 21.9844 66.4703 22.156C66.2111 22.3276 65.981 22.5354 65.7808 22.778C65.5802 23.0209 65.4212 23.2847 65.3036 23.569H65.2679V21.8625H62.8809V31.0501H65.3917V26.9091C65.3917 26.4946 65.4332 26.11 65.5158 25.7547C65.5973 25.3991 65.7364 25.0881 65.9312 24.8218C66.1259 24.555 66.3826 24.345 66.7004 24.191C67.0186 24.0369 67.407 23.9594 67.8672 23.9594C68.0204 23.9594 68.1795 23.9685 68.3441 23.9865C68.5093 24.0044 68.6509 24.0249 68.7689 24.0487V21.7026C68.5687 21.6434 68.3856 21.6137 68.221 21.6137C67.9025 21.6137 67.5959 21.6613 67.3014 21.7561Z" fill="#8A8A8C"/>
<path d="M69.5835 16.2462H72.0943V7.05821H69.5835V16.2462Z" fill="#24272A"/>
<path d="M69.5835 5.63678H72.0943V3.55749H69.5835V5.63678Z" fill="#24272A"/>
<path d="M86.7696 12.6917C86.7696 12.8336 86.755 13.0232 86.7255 13.2602C86.696 13.4973 86.6163 13.7311 86.4867 13.962C86.3571 14.1932 86.1565 14.3915 85.8853 14.5577C85.6145 14.7234 85.2308 14.8061 84.7364 14.8061C84.5358 14.8061 84.341 14.7882 84.1532 14.753C83.9642 14.7172 83.799 14.6553 83.6574 14.5664C83.5161 14.4775 83.404 14.3561 83.3221 14.202C83.2391 14.048 83.1979 13.8585 83.1979 13.6334C83.1979 13.3967 83.2391 13.2013 83.3221 13.0469C83.404 12.8933 83.5132 12.7656 83.6486 12.665C83.784 12.5643 83.9431 12.4849 84.1259 12.4249C84.3086 12.3657 84.4947 12.3181 84.6836 12.2826C84.8835 12.2471 85.0844 12.2179 85.2843 12.1941C85.4852 12.1703 85.6763 12.1407 85.8591 12.1048C86.0415 12.0697 86.2129 12.0254 86.3717 11.9716C86.5311 11.9186 86.664 11.845 86.7696 11.7499V12.6917ZM89.351 15.3926C89.304 15.0135 89.2804 14.6169 89.2804 14.202V9.42144C89.2804 8.86494 89.157 8.41784 88.9094 8.08013C88.6619 7.74206 88.3433 7.47863 87.9542 7.28874C87.5657 7.09994 87.1351 6.97262 86.664 6.90712C86.1922 6.84236 85.7266 6.80943 85.2668 6.80943C84.7597 6.80943 84.2562 6.85993 83.7557 6.96054C83.2544 7.06116 82.803 7.22983 82.4021 7.46692C82.0013 7.70401 81.6715 8.01793 81.4123 8.40906C81.1531 8.79945 81.006 9.29119 80.9704 9.88391H83.4812C83.5278 9.38632 83.6938 9.03032 83.9759 8.81738C84.2591 8.60407 84.6479 8.4976 85.1427 8.4976C85.3669 8.4976 85.5766 8.5126 85.7703 8.54187C85.965 8.57187 86.1361 8.63078 86.2836 8.71969C86.431 8.8086 86.549 8.93299 86.6371 9.09325C86.7255 9.25314 86.7696 9.46937 86.7696 9.74159C86.7812 10.0017 86.7048 10.2008 86.5395 10.3369C86.3746 10.4733 86.1507 10.5765 85.8678 10.6475C85.585 10.7188 85.2606 10.7723 84.8955 10.8081C84.5303 10.8432 84.1586 10.8908 83.7819 10.9501C83.404 11.0094 83.0301 11.0891 82.6592 11.1901C82.2875 11.2907 81.9576 11.4418 81.6686 11.6431C81.3799 11.845 81.144 12.1139 80.9613 12.4517C80.7789 12.7894 80.6875 13.2185 80.6875 13.7399C80.6875 14.2141 80.7669 14.6224 80.9263 14.9663C81.0854 15.3099 81.3067 15.5946 81.5892 15.8196C81.8721 16.0446 82.2019 16.2103 82.5791 16.3168C82.9562 16.4233 83.3632 16.4771 83.799 16.4771C84.3651 16.4771 84.9188 16.394 85.4612 16.2283C86.0033 16.0625 86.4747 15.772 86.8755 15.3571C86.8872 15.5115 86.9083 15.6622 86.9378 15.8104C86.9669 15.9586 87.0051 16.1035 87.0524 16.2462H89.5985C89.4806 16.0567 89.398 15.772 89.351 15.3926Z" fill="#24272A"/>
<path d="M73.438 16.2462H75.9484V3.55748H73.438V16.2462Z" fill="#24272A"/>
<path d="M77.2925 16.2462H79.8033V3.55748H77.2925V16.2462Z" fill="#24272A"/>
<path d="M46.208 11.4586H49.0017C48.9187 12.3469 48.6271 13.0256 48.1269 13.4932C47.6252 13.9616 46.915 14.195 45.9958 14.195C45.3707 14.195 44.8406 14.0735 44.4045 13.8306C43.968 13.588 43.6142 13.2649 43.343 12.8625C43.0718 12.46 42.8748 12.0067 42.751 11.5028C42.6276 10.9994 42.5654 10.4809 42.5654 9.94786C42.5654 9.39136 42.6276 8.85242 42.751 8.33068C42.8748 7.80967 43.0718 7.34463 43.343 6.93558C43.6142 6.52689 43.968 6.20163 44.4045 5.95869C44.8406 5.71574 45.3707 5.59427 45.9958 5.59427C46.6678 5.59427 47.239 5.77172 47.7111 6.12736C48.1822 6.48262 48.5007 7.01534 48.666 7.72661H51.3177C51.2471 7.004 51.0527 6.36445 50.7345 5.80758C50.416 5.25071 50.0119 4.78275 49.5226 4.4037C49.0341 4.02465 48.4858 3.73707 47.8789 3.54169C47.271 3.34594 46.6438 3.24825 45.9958 3.24825C45.0289 3.24825 44.1595 3.42022 43.3874 3.76378C42.6156 4.1077 41.964 4.58115 41.4339 5.18522C40.9035 5.78965 40.4969 6.49726 40.2137 7.30914C39.9312 8.12066 39.7896 9.00024 39.7896 9.94786C39.7896 10.8717 39.9312 11.7341 40.2137 12.5335C40.4969 13.3333 40.9035 14.0292 41.4339 14.622C41.964 15.2143 42.6156 15.679 43.3874 16.0167C44.1595 16.3544 45.0289 16.5234 45.9958 16.5234C46.6081 16.5234 47.2157 16.3957 47.8171 16.1411C48.4181 15.8868 48.966 15.4393 49.4618 14.7994L49.7443 16.2388H51.5121V9.37929H46.208V11.4586Z" fill="#24272A"/>
<path d="M67.3014 6.94435C67.0062 7.03984 66.7295 7.17266 66.4703 7.34462C66.2111 7.51585 65.981 7.72404 65.7808 7.96661C65.5802 8.20956 65.4212 8.47299 65.3036 8.75728H65.2679V7.05119H62.8809V16.2388H65.3917V12.0981C65.3917 11.6832 65.4332 11.2983 65.5158 10.9434C65.5973 10.5878 65.7364 10.2764 65.9312 10.01C66.1259 9.74369 66.3826 9.53331 66.7004 9.37927C67.0186 9.22524 67.407 9.1484 67.8672 9.1484C68.0204 9.1484 68.1795 9.15682 68.3441 9.17475C68.5093 9.19304 68.6509 9.21316 68.7689 9.23695V6.8913C68.5687 6.83202 68.3856 6.80239 68.221 6.80239C67.9025 6.80239 67.5959 6.84995 67.3014 6.94435Z" fill="#24272A"/>
<path d="M59.3445 12.7288C59.2742 13.0786 59.1534 13.3925 58.983 13.6709C58.8115 13.9494 58.5811 14.1711 58.2931 14.3372C58.0041 14.5037 57.6481 14.586 57.2236 14.586C56.7991 14.586 56.4453 14.5037 56.1628 14.3372C55.8792 14.1711 55.652 13.9494 55.4816 13.6709C55.3105 13.3925 55.1893 13.0786 55.1198 12.7288C55.0481 12.3798 55.0131 12.0212 55.0131 11.6538C55.0131 11.2872 55.0481 10.9254 55.1198 10.5705C55.1893 10.2141 55.3105 9.90092 55.4816 9.62798C55.652 9.3554 55.8792 9.13331 56.1628 8.96171C56.4453 8.79011 56.7991 8.70413 57.2236 8.70413C57.6481 8.70413 58.0041 8.79011 58.2931 8.96171C58.5811 9.13331 58.8115 9.3554 58.983 9.62798C59.1534 9.90092 59.2742 10.2141 59.3445 10.5705C59.4155 10.9254 59.4508 11.2872 59.4508 11.6538C59.4508 12.0212 59.4155 12.3798 59.3445 12.7288ZM60.6711 8.12641C60.2586 7.70601 59.7606 7.38002 59.1774 7.14915C58.5935 6.91828 57.9418 6.80266 57.2236 6.80266C56.5039 6.80266 55.8555 6.91828 55.2785 7.14915C54.7008 7.38002 54.2057 7.70601 53.7925 8.12641C53.3804 8.5468 53.0622 9.05647 52.8383 9.65468C52.6144 10.2529 52.502 10.9195 52.502 11.6538C52.502 12.3885 52.6144 13.0519 52.8383 13.6442C53.0622 14.2366 53.3804 14.743 53.7925 15.1634C54.2057 15.5845 54.7008 15.9072 55.2785 16.1326C55.8555 16.3572 56.5039 16.4703 57.2236 16.4703C57.9418 16.4703 58.5935 16.3572 59.1774 16.1326C59.7606 15.9072 60.2586 15.5845 60.6711 15.1634C61.0835 14.743 61.4017 14.2366 61.626 13.6442C61.8498 13.0519 61.9612 12.3885 61.9612 11.6538C61.9612 10.9195 61.8498 10.2529 61.626 9.65468C61.4017 9.05647 61.0835 8.5468 60.6711 8.12641Z" fill="#24272A"/>
<path d="M10.8066 25.3288C10.9006 28.3107 11.6075 29.8997 12.3316 31.2717C12.3429 31.2922 12.3535 31.3134 12.3644 31.3343H17.2648C17.2604 31.3134 16.3809 27.9499 16.3263 26.8497C14.5319 26.6269 12.6851 26.1194 10.8066 25.3288Z" fill="#24272A"/>
<path d="M32.6236 14.3702C32.5985 14.3109 32.5723 14.2491 32.5476 14.1913C32.5403 14.1752 32.5341 14.1605 32.5272 14.1445C32.4504 13.9677 32.3772 13.7991 32.3051 13.6355C32.1274 13.2327 31.9625 12.8686 31.8176 12.5573C31.7878 12.4921 31.7623 12.438 31.743 12.397C31.4212 11.7168 31.2294 11.3539 31.1868 11.2851L31.1831 11.28C31.182 11.2785 31.1806 11.2756 31.1798 11.2745C31.1697 11.2569 31.1063 11.1633 31.043 11.0674C30.9898 10.9866 30.9378 10.9079 30.9119 10.8702C30.9105 10.8687 30.9097 10.8676 30.9086 10.8669C30.9054 10.8618 30.9014 10.8559 30.8981 10.8508C30.7029 10.587 30.4718 10.3426 30.2148 10.1249C30.1758 10.0927 30.1329 10.0649 30.0932 10.0338C30 9.96063 29.9079 9.88672 29.8085 9.82123C29.7517 9.78354 29.6905 9.75281 29.6316 9.71768C29.546 9.66683 29.463 9.61231 29.3746 9.56767L29.325 9.54279L29.3232 9.54133H29.3225L29.3058 9.53255C29.1987 9.47913 29.0953 9.43815 29.0145 9.40705L28.9588 9.3829C28.9479 9.37851 28.9373 9.37376 28.9268 9.36937C28.9257 9.36937 28.9246 9.369 28.9239 9.36827L28.9224 9.36754C28.8318 9.33351 28.7317 9.30424 28.6152 9.27021L28.57 9.25558C28.5642 9.25375 28.5576 9.25192 28.5515 9.25009C28.5387 9.24533 28.5271 9.24131 28.5143 9.23802C28.5132 9.23802 28.5129 9.23802 28.5118 9.23728C28.5107 9.23728 28.5096 9.23655 28.5081 9.23655C28.3764 9.2018 28.2315 9.17142 28.0829 9.14728C27.961 9.12752 27.8365 9.11508 27.7109 9.10593C27.6719 9.10301 27.6333 9.10301 27.5944 9.10118C27.5314 9.09862 27.4692 9.09349 27.4065 9.09349C27.3832 9.09349 27.3614 9.09605 27.3381 9.09605C27.2871 9.09752 27.2365 9.10044 27.1856 9.10301C27.1102 9.10667 27.0359 9.11142 26.962 9.11947C26.9085 9.12496 26.8554 9.13228 26.8026 9.13923C26.7331 9.14911 26.6639 9.16082 26.5955 9.17399C26.539 9.1846 26.4826 9.19594 26.4265 9.20948C26.3657 9.22338 26.3057 9.23985 26.2449 9.25594C26.1834 9.27351 26.1211 9.2907 26.0599 9.31119C26.0126 9.32656 25.9657 9.34412 25.9187 9.36168C25.8466 9.38766 25.7749 9.41327 25.705 9.44327C25.6824 9.45279 25.6606 9.46376 25.6384 9.47364C24.9008 9.80001 24.2594 10.3243 23.7931 10.9906C23.7348 11.0736 23.678 11.1585 23.6256 11.2463C23.6245 11.2474 23.6241 11.2493 23.623 11.2511C23.5644 11.348 23.5095 11.4483 23.4585 11.5504C23.453 11.5613 23.4483 11.5727 23.4432 11.5837C23.397 11.6784 23.3533 11.7739 23.314 11.872C23.295 11.9188 23.2794 11.9675 23.2626 12.015C23.2404 12.0761 23.2157 12.1369 23.1964 12.1994C23.1927 12.2122 23.1891 12.2243 23.1847 12.2364L23.1724 12.2766C23.1582 12.3209 23.1454 12.359 23.136 12.3974L23.1021 12.5763L23.0879 12.6476C23.0846 12.6648 23.0821 12.6817 23.0777 12.6963C23.0763 12.7029 23.0755 12.7095 23.0752 12.7157C23.0748 12.7172 23.0748 12.7197 23.0741 12.7212L23.0712 12.7373C23.0504 12.85 23.0347 12.9652 23.0231 13.0633L23.0216 13.0783C23.0213 13.0827 23.0202 13.0871 23.0195 13.0915C23.0136 13.1321 23.0107 13.1734 23.006 13.214C23.006 13.2155 23.006 13.2169 23.0053 13.2184L23.0042 13.2261C22.9951 13.33 22.986 13.4475 22.9823 13.5587V13.566V13.5689C22.9816 13.5711 22.9823 13.574 22.9816 13.5762C22.9798 13.6436 22.9787 13.7032 22.9787 13.7621C22.9776 13.8386 22.978 13.885 22.9791 13.9293V13.9326V13.9366C22.9816 14.094 22.9914 14.2538 23.0042 14.4141C23.0311 14.746 23.0766 15.084 23.1425 15.4265C23.1458 15.4441 23.1512 15.462 23.1545 15.4803C23.156 15.4869 23.1571 15.4938 23.1582 15.5008C23.1964 15.6918 23.2404 15.8824 23.2878 16.0712C23.3027 16.1308 23.3187 16.1897 23.3344 16.2486C23.3518 16.3141 23.3675 16.3811 23.3861 16.4458C23.389 16.455 23.3926 16.4652 23.3952 16.4744C23.4203 16.5611 23.4487 16.65 23.4756 16.7385C23.4956 16.8029 23.5138 16.8666 23.5349 16.9324C23.6005 17.1359 23.6707 17.34 23.7461 17.5446C23.7836 17.647 23.8262 17.752 23.8666 17.8559C23.9103 17.9683 23.954 18.0806 23.9995 18.1922C24.0191 18.2397 24.0366 18.288 24.0566 18.3363C24.0796 18.3916 24.1043 18.4468 24.128 18.5013C24.1567 18.5679 24.1848 18.6342 24.2139 18.7004C24.2219 18.719 24.2306 18.737 24.2394 18.7549C24.2732 18.8328 24.3074 18.9104 24.3435 18.9887C24.3701 19.0461 24.4003 19.1061 24.4276 19.1643C24.4527 19.2181 24.476 19.2719 24.5015 19.3253C24.5186 19.3608 24.5372 19.3948 24.5546 19.4303C24.7112 19.7537 24.8743 20.0797 25.0512 20.4116L25.0814 20.4683C25.1528 20.5986 25.2234 20.7303 25.2973 20.862L25.3144 20.8927C25.3359 20.9315 25.3581 20.9703 25.3803 21.0087C25.5284 21.2714 25.685 21.5385 25.8473 21.8082C25.9722 22.0167 26.0996 22.226 26.231 22.4349L26.3395 22.6102L26.3515 22.6285C26.5368 22.9197 26.7218 23.2014 26.9042 23.4744C26.9096 23.482 26.9147 23.4901 26.9202 23.4978C27.5208 24.3934 28.096 25.179 28.5653 25.7937C28.933 26.2294 29.3152 26.6718 29.7211 27.128C29.7211 27.128 31.359 28.8345 31.7518 31.2716L36.9801 31.2712C36.9838 31.1428 36.9896 31.0151 36.9903 30.8841V30.8787C37.0085 25.9883 34.7205 19.4314 33.0012 15.2673C32.8708 14.9523 32.7456 14.6556 32.6236 14.3702Z" fill="#24272A"/>
<path d="M20.6828 26.8165C20.638 27.9134 19.7475 31.3136 19.7432 31.3344H24.6435C24.6545 31.3136 24.6654 31.292 24.6767 31.2718C25.4251 29.853 26.1547 28.2014 26.2075 25.0204C25.6723 25.2996 25.119 25.5378 24.5536 25.7434C23.2733 26.2696 21.9886 26.6259 20.6828 26.8165Z" fill="#24272A"/>
<path d="M37.0168 10.2784C37.015 10.2528 37.0146 10.2275 37.0132 10.2008C37.0113 10.1697 37.0051 10.1408 37.0037 10.1101C36.917 8.66265 36.1759 7.46733 35.1828 7.08279C35.2053 7.1417 35.2184 7.20499 35.2184 7.27232C35.2184 7.58258 34.9687 7.83357 34.6611 7.83357C34.3513 7.83357 34.1015 7.58258 34.1015 7.27232C34.1015 7.08755 34.1922 6.92473 34.3302 6.82192C34.3677 6.79484 34.8271 6.32067 35.0488 6.14358C35.921 5.44365 34.348 3.1774 32.2289 2.11818C31.3861 0.451969 29.2543 0.298664 28.4938 0.529167C28.1556 0.632345 27.8735 0.809795 27.599 1.06408L27.5994 1.03262C24.5574 3.25277 13.9521 10.9212 12.3893 13.1988C12.3893 13.1988 12.6263 11.4294 14.3551 10.1013C14.3551 10.1013 11.9288 10.1342 10.2586 10.8795C1.54556 14.7648 0.224445 29.8309 0.511675 31.3095C0.512039 31.312 0.512766 31.316 0.513494 31.3197H5.22421C5.22603 31.316 5.22712 31.3128 5.22858 31.3095C6.85439 26.8505 10.5585 24.3245 10.5585 24.3245C12.7442 25.3164 15.8408 25.7993 17.8339 25.7993C19.8271 25.7993 24.2906 25.0204 26.0831 24.0303C26.074 24.0131 26.062 23.997 26.0518 23.9802C26.0369 23.9557 26.0216 23.9311 26.003 23.9081C25.8421 23.6655 25.6801 23.4204 25.5178 23.165L25.3911 22.9623C25.2586 22.7508 25.1272 22.536 24.999 22.3216C24.833 22.0454 24.6717 21.7703 24.5192 21.4999L24.4347 21.351C24.3699 21.2353 24.3073 21.1194 24.2447 21.0041L24.1799 20.8841C24.0136 20.5727 23.8501 20.2497 23.6644 19.8659C23.6644 19.8659 23.6226 19.7839 23.608 19.7539C23.5924 19.7213 23.5319 19.5882 23.5319 19.5882C23.5319 19.5882 23.462 19.4444 23.4438 19.4038C23.4067 19.324 23.3699 19.2398 23.3332 19.1564C23.3255 19.1407 23.3142 19.1169 23.304 19.0928C23.2527 18.9764 23.197 18.8495 23.1439 18.7214L23.0856 18.5758C23.0663 18.5278 23.0492 18.4832 23.0306 18.4367C23.0019 18.3639 22.9724 18.2897 22.9444 18.2183L22.9065 18.1221C22.8763 18.0445 22.8457 17.9666 22.8173 17.8901C22.7372 17.6717 22.663 17.4551 22.5931 17.2389L22.5017 16.9418C22.497 16.9275 22.4933 16.9136 22.4886 16.8993C22.4696 16.8379 22.4504 16.776 22.4332 16.716C22.4205 16.6714 22.4059 16.6154 22.3917 16.5598L22.3288 16.319C22.2763 16.1098 22.2287 15.9038 22.1875 15.6974L22.1733 15.6301C22.0969 15.2324 22.047 14.8544 22.0179 14.4926C22.008 13.9712 22.0335 13.4758 22.098 13.0115C22.1063 12.9511 22.1151 12.8893 22.126 12.8271C22.1384 12.7477 22.1515 12.6694 22.1668 12.5918C22.177 12.5369 22.1919 12.4817 22.2039 12.4265C22.2217 12.3474 22.2374 12.268 22.2574 12.1908C22.2574 12.1908 22.2836 12.092 22.2953 12.0511C22.296 12.0485 22.2975 12.0434 22.2982 12.0408C22.3015 12.0291 22.3051 12.0189 22.3087 12.0072C22.3131 11.9911 22.3186 11.9757 22.3233 11.9596C22.3262 11.9493 22.3295 11.9391 22.3324 11.9292C22.3455 11.8868 22.3582 11.8443 22.3714 11.8023C22.3863 11.7543 22.3998 11.7049 22.4154 11.6581L22.4285 11.6102L22.4533 11.5516L22.5486 11.2856L22.5596 11.2604C22.5687 11.2384 22.58 11.2172 22.5901 11.196C22.6058 11.1627 22.6211 11.129 22.6375 11.0957L22.6593 11.0511C22.6764 11.0164 22.6957 10.9834 22.7136 10.9487C22.9877 10.4138 23.3434 9.93555 23.7642 9.52906C23.7755 9.51808 23.7864 9.50747 23.798 9.49722C23.8293 9.46869 23.8603 9.43978 23.8931 9.41234C24.2935 9.06768 24.7453 8.78157 25.2396 8.56277C25.2706 8.54814 25.3012 8.53387 25.3321 8.52143C25.3991 8.49252 25.485 8.46069 25.5717 8.42959L25.6132 8.41386C25.6594 8.39703 25.7053 8.38056 25.7519 8.36519C25.8298 8.33958 25.9058 8.31836 25.9823 8.29678C26.0551 8.27665 26.1301 8.25653 26.2062 8.23897C26.271 8.2236 26.3405 8.21006 26.4111 8.19653C26.492 8.18043 26.5768 8.16652 26.6616 8.15408C26.7311 8.14457 26.7952 8.13652 26.8607 8.12957C26.9503 8.12006 27.0435 8.11347 27.137 8.10871C27.2084 8.10542 27.263 8.10249 27.3176 8.1014C27.3453 8.09957 27.3755 8.09883 27.4064 8.09883C27.4672 8.09883 27.5269 8.1014 27.5877 8.10432C27.5877 8.10432 27.7424 8.11054 27.7781 8.11274C27.9485 8.12481 28.0981 8.14164 28.239 8.16469C28.405 8.19177 28.5634 8.22433 28.7123 8.26165L28.7512 8.26824L28.9172 8.32202C28.9758 8.33922 29.0337 8.35641 29.0898 8.37434H29.1178L29.2674 8.43435L29.3027 8.44605L29.3439 8.46618L29.3854 8.48411C29.4676 8.51594 29.5612 8.55362 29.6609 8.60046L29.7079 8.61216L29.8051 8.67107L29.8215 8.67949C29.9089 8.72339 29.9937 8.77461 30.0789 8.82693L30.1783 8.88511C30.2376 8.9184 30.2966 8.95243 30.3526 8.98975C30.468 9.06585 30.5758 9.14964 30.6832 9.23416L30.705 9.25135C30.7647 9.29416 30.8088 9.32673 30.851 9.36258C31.1564 9.62016 31.4295 9.90774 31.6635 10.218L31.6716 10.2257L31.7251 10.3022C31.7535 10.3435 31.8103 10.4288 31.8678 10.5162L31.9897 10.6995L32.0502 10.799C32.167 11.0014 32.392 11.4507 32.6374 11.9698L32.716 12.1385C32.7568 12.2259 32.7994 12.3189 32.843 12.4144C32.8718 12.5088 32.9009 12.6054 32.9304 12.706C32.949 12.7696 32.9763 12.8633 33.0091 12.9775C33.0273 13.0415 33.0462 13.1095 33.068 13.1864C33.1113 13.2138 33.1663 13.2405 33.2249 13.2654C33.5507 13.4037 34.0699 13.5014 34.3728 13.5014C34.9126 13.5014 35.4758 13.3199 35.9451 12.9211C36.4889 12.4601 36.9007 11.7005 37.0037 10.5773C37.0051 10.563 37.0073 10.551 37.0088 10.5374C37.0102 10.5184 37.0132 10.4994 37.0146 10.48C37.015 10.4767 37.0168 10.473 37.0168 10.469V10.4599C37.0179 10.4383 37.0201 10.417 37.0201 10.3984C37.0201 10.3585 37.0168 10.3175 37.0168 10.2784Z" fill="#24272A"/>
<path d="M95.5813 29.2408C95.5248 29.209 95.4342 29.1929 95.3093 29.1929H95.1178V29.6568H95.3203C95.4156 29.6568 95.4866 29.6473 95.5343 29.6287C95.622 29.5936 95.6657 29.5266 95.6657 29.4282C95.6657 29.3352 95.6377 29.2727 95.5813 29.2408ZM95.3388 29.0389C95.4968 29.0389 95.6126 29.0542 95.6865 29.085C95.8179 29.1402 95.8842 29.2485 95.8842 29.4095C95.8842 29.5237 95.8427 29.6082 95.7597 29.6623C95.7156 29.6909 95.6541 29.7114 95.5755 29.7242C95.6752 29.7403 95.748 29.782 95.7942 29.8497C95.8405 29.9174 95.8634 29.9832 95.8634 30.048V30.1416C95.8634 30.1713 95.8645 30.2031 95.8667 30.2368C95.8689 30.2704 95.8725 30.2927 95.8776 30.3034L95.8856 30.3191H95.6756C95.6745 30.3151 95.6734 30.311 95.6723 30.3066C95.6712 30.3023 95.6701 30.2979 95.669 30.2924L95.6646 30.2514V30.1497C95.6646 30.0019 95.6242 29.9042 95.5441 29.857C95.4968 29.8292 95.4135 29.8156 95.2944 29.8156H95.1178V30.3191H94.8929V29.0389H95.3388ZM94.6562 28.9741C94.4622 29.1699 94.3654 29.4066 94.3654 29.6839C94.3654 29.9635 94.4618 30.2016 94.6544 30.3985C94.8481 30.5957 95.084 30.6941 95.361 30.6941C95.6381 30.6941 95.8736 30.5957 96.0673 30.3985C96.2609 30.2016 96.3581 29.9635 96.3581 29.6839C96.3581 29.4066 96.2609 29.1699 96.0673 28.9741C95.8725 28.7769 95.637 28.6785 95.361 28.6785C95.0862 28.6785 94.851 28.7769 94.6562 28.9741ZM96.1827 30.5101C95.9562 30.7388 95.6821 30.8529 95.361 30.8529C95.0396 30.8529 94.7662 30.7388 94.5408 30.5101C94.3162 30.2825 94.2041 30.0063 94.2041 29.6825C94.2041 29.3616 94.3173 29.0872 94.5438 28.8596C94.7695 28.6331 95.0418 28.5197 95.361 28.5197C95.6821 28.5197 95.9562 28.6331 96.1827 28.8596C96.4091 29.0861 96.5227 29.3605 96.5227 29.6825C96.5227 30.0055 96.4091 30.2814 96.1827 30.5101Z" fill="#8A8A8C"/>
</svg>
